<svg xmlns="http://www.w3.org/2000/svg" xmlns:xlink="http://www.w3.org/1999/xlink" width="500" zoomAndPan="magnify" viewBox="0 0 375 374.999991" height="500" preserveAspectRatio="xMidYMid meet" version="1.0"><defs><clipPath id="9793e03599"><path d="M 241.796875 129.519531 L 357.625 129.519531 L 357.625 323 L 241.796875 323 Z M 241.796875 129.519531 " clip-rule="nonzero"/></clipPath><clipPath id="b07e8d79fa"><path d="M 299.710938 129.519531 L 357.625 322.933594 L 241.796875 322.933594 Z M 299.710938 129.519531 " clip-rule="nonzero"/></clipPath><clipPath id="4ce8d248c4"><path d="M 88 26 L 285 26 L 285 216 L 88 216 Z M 88 26 " clip-rule="nonzero"/></clipPath><clipPath id="f520b90d21"><path d="M 156.304688 26.785156 L 284.851562 107.050781 L 217.382812 215.109375 L 88.832031 134.847656 Z M 156.304688 26.785156 " clip-rule="nonzero"/></clipPath><clipPath id="1e7622e684"><path d="M 121 26 L 285 26 L 285 173 L 121 173 Z M 121 26 " clip-rule="nonzero"/></clipPath><clipPath id="c983a7e76f"><path d="M 156.359375 26.785156 L 284.851562 70.871094 L 249.8125 172.996094 L 121.320312 128.910156 Z M 156.359375 26.785156 " clip-rule="nonzero"/></clipPath><clipPath id="9174c93ba2"><path d="M 88 76 L 300 76 L 300 323 L 88 323 Z M 88 76 " clip-rule="nonzero"/></clipPath><clipPath id="1bc5246285"><path d="M 88.832031 135.183594 L 183.042969 76.640625 L 299.710938 264.390625 L 205.503906 322.929688 Z M 88.832031 135.183594 " clip-rule="nonzero"/></clipPath><clipPath id="c6d440c288"><path d="M 206.09375 212.007812 L 316.097656 212.007812 L 316.097656 322.925781 L 206.09375 322.925781 Z M 206.09375 212.007812 " clip-rule="nonzero"/></clipPath><clipPath id="1bb9932964"><path d="M 198 70 L 348 70 L 348 312 L 198 312 Z M 198 70 " clip-rule="nonzero"/></clipPath><clipPath id="03aaf694a1"><path d="M 261.351562 311.265625 L 198.738281 95.652344 L 284.507812 70.742188 L 347.121094 286.359375 Z M 261.351562 311.265625 " clip-rule="nonzero"/></clipPath><clipPath id="d3989e7637"><path d="M 206.09375 232.597656 L 324.363281 232.597656 L 324.363281 322.933594 L 206.09375 322.933594 Z M 206.09375 232.597656 " clip-rule="nonzero"/></clipPath><clipPath id="4194946ff5"><path d="M 17 183 L 144 183 L 144 283 L 17 283 Z M 17 183 " clip-rule="nonzero"/></clipPath><clipPath id="994005a15c"><path d="M 41.523438 183.035156 L 143.738281 233.921875 L 119.589844 282.429688 L 17.375 231.542969 Z M 41.523438 183.035156 " clip-rule="nonzero"/></clipPath><clipPath id="9d3e3ee608"><path d="M 17 217 L 94 217 L 94 327 L 17 327 Z M 17 217 " clip-rule="nonzero"/></clipPath><clipPath id="951e6e5b96"><path d="M 70.292969 217.882812 L 93.15625 314.078125 L 40.4375 326.609375 L 17.574219 230.410156 Z M 70.292969 217.882812 " clip-rule="nonzero"/></clipPath><clipPath id="be12cd1f22"><path d="M 39 261 L 112 261 L 112 327 L 39 327 Z M 39 261 " clip-rule="nonzero"/></clipPath><clipPath id="eb2a646e55"><path d="M 39.8125 262.066406 L 110.667969 261.15625 L 111.496094 325.734375 L 40.640625 326.644531 Z M 39.8125 262.066406 " clip-rule="nonzero"/></clipPath><clipPath id="e52f049a45"><path d="M 46 206 L 154 206 L 154 325 L 46 325 Z M 46 206 " clip-rule="nonzero"/></clipPath><clipPath id="c24caa6f2e"><path d="M 89.082031 206.511719 L 153.503906 238.519531 L 110.53125 325 L 46.113281 292.992188 Z M 89.082031 206.511719 " clip-rule="nonzero"/></clipPath><clipPath id="959d29b1ea"><path d="M 239.835938 174.65625 L 329.871094 174.65625 L 329.871094 325 L 239.835938 325 Z M 239.835938 174.65625 " clip-rule="nonzero"/></clipPath><clipPath id="743a9c41eb"><path d="M 284.855469 174.65625 L 329.871094 325 L 239.835938 325 Z M 284.855469 174.65625 " clip-rule="nonzero"/></clipPath><clipPath id="d7fe5deb8a"><path d="M 203 174 L 304 174 L 304 331 L 203 331 Z M 203 174 " clip-rule="nonzero"/></clipPath><clipPath id="dfda2c8efa"><path d="M 344.644531 313.078125 L 261.746094 348.214844 L 203.003906 209.621094 L 285.902344 174.484375 Z M 344.644531 313.078125 " clip-rule="nonzero"/></clipPath><clipPath id="079cf283ba"><path d="M 303.195312 330.644531 L 203.078125 209.789062 L 285.972656 174.65625 Z M 303.195312 330.644531 " clip-rule="nonzero"/></clipPath></defs><g clip-path="url(#9793e03599)"><g clip-path="url(#b07e8d79fa)"><path fill="#ffffff" d="M 241.796875 129.519531 L 357.625 129.519531 L 357.625 322.71875 L 241.796875 322.71875 Z M 241.796875 129.519531 " fill-opacity="1" fill-rule="nonzero"/></g></g><g clip-path="url(#4ce8d248c4)"><g clip-path="url(#f520b90d21)"><path fill="#ffffff" d="M 156.304688 26.785156 L 285.046875 107.171875 L 217.574219 215.234375 L 88.832031 134.847656 Z M 156.304688 26.785156 " fill-opacity="1" fill-rule="nonzero"/></g></g><g clip-path="url(#1e7622e684)"><g clip-path="url(#c983a7e76f)"><path fill="#ffffff" d="M 156.359375 26.785156 L 284.816406 70.859375 L 249.777344 172.984375 L 121.320312 128.910156 Z M 156.359375 26.785156 " fill-opacity="1" fill-rule="nonzero"/></g></g><g clip-path="url(#9174c93ba2)"><g clip-path="url(#1bc5246285)"><path fill="#ffffff" d="M 88.832031 135.183594 L 183.042969 76.640625 L 299.667969 264.320312 L 205.460938 322.863281 Z M 88.832031 135.183594 " fill-opacity="1" fill-rule="nonzero"/></g></g><g clip-path="url(#c6d440c288)"><path fill="#ffffff" d="M 206.09375 322.925781 L 206.09375 212.0625 L 316.097656 212.0625 L 316.097656 322.925781 Z M 206.09375 322.925781 " fill-opacity="1" fill-rule="nonzero"/></g><g clip-path="url(#1bb9932964)"><g clip-path="url(#03aaf694a1)"><path fill="#ffffff" d="M 261.351562 311.265625 L 198.691406 95.496094 L 284.464844 70.589844 L 347.121094 286.359375 Z M 261.351562 311.265625 " fill-opacity="1" fill-rule="nonzero"/></g></g><g clip-path="url(#d3989e7637)"><path fill="#ffffff" d="M 206.09375 232.597656 L 324.3125 232.597656 L 324.3125 322.933594 L 206.09375 322.933594 Z M 206.09375 232.597656 " fill-opacity="1" fill-rule="nonzero"/></g><g clip-path="url(#4194946ff5)"><g clip-path="url(#994005a15c)"><path fill="#ffffff" d="M 41.523438 183.035156 L 143.652344 233.882812 L 119.503906 282.386719 L 17.375 231.542969 Z M 41.523438 183.035156 " fill-opacity="1" fill-rule="nonzero"/></g></g><g clip-path="url(#9d3e3ee608)"><g clip-path="url(#951e6e5b96)"><path fill="#ffffff" d="M 70.292969 217.882812 L 93.148438 314.050781 L 40.429688 326.578125 L 17.574219 230.410156 Z M 70.292969 217.882812 " fill-opacity="1" fill-rule="nonzero"/></g></g><g clip-path="url(#be12cd1f22)"><g clip-path="url(#eb2a646e55)"><path fill="#ffffff" d="M 39.8125 262.066406 L 110.695312 261.15625 L 111.527344 325.734375 L 40.640625 326.644531 Z M 39.8125 262.066406 " fill-opacity="1" fill-rule="nonzero"/></g></g><g clip-path="url(#e52f049a45)"><g clip-path="url(#c24caa6f2e)"><path fill="#ffffff" d="M 89.082031 206.511719 L 153.503906 238.519531 L 110.492188 325.082031 L 46.070312 293.074219 Z M 89.082031 206.511719 " fill-opacity="1" fill-rule="nonzero"/></g></g><g clip-path="url(#959d29b1ea)"><g clip-path="url(#743a9c41eb)"><path fill="#ffffff" d="M 239.835938 174.65625 L 329.871094 174.65625 L 329.871094 324.832031 L 239.835938 324.832031 Z M 239.835938 174.65625 " fill-opacity="1" fill-rule="nonzero"/></g></g><g clip-path="url(#d7fe5deb8a)"><g clip-path="url(#dfda2c8efa)"><g clip-path="url(#079cf283ba)"><path fill="#ffffff" d="M 344.644531 313.078125 L 261.746094 348.214844 L 203.140625 209.945312 L 286.039062 174.808594 Z M 344.644531 313.078125 " fill-opacity="1" fill-rule="nonzero"/></g></g></g></svg>